<svg width="42" height="42" viewBox="0 0 42 42" fill="none" xmlns="http://www.w3.org/2000/svg">
<path d="M18.9165 31.4167H23.0832V23.0833H31.4165V18.9167H23.0832V10.5833H18.9165V18.9167H10.5832V23.0833H18.9165V31.4167ZM20.9998 41.8333C18.1179 41.8333 15.4096 41.2861 12.8748 40.1917C10.3401 39.0986 8.13525 37.6146 6.26025 35.7396C4.38525 33.8646 2.90123 31.6597 1.80817 29.125C0.713726 26.5903 0.166504 23.8819 0.166504 21C0.166504 18.118 0.713726 15.4097 1.80817 12.875C2.90123 10.3403 4.38525 8.13541 6.26025 6.26041C8.13525 4.38541 10.3401 2.90068 12.8748 1.80624C15.4096 0.713184 18.1179 0.166656 20.9998 0.166656C23.8818 0.166656 26.5901 0.713184 29.1248 1.80624C31.6596 2.90068 33.8644 4.38541 35.7394 6.26041C37.6144 8.13541 39.0984 10.3403 40.1915 12.875C41.2859 15.4097 41.8332 18.118 41.8332 21C41.8332 23.8819 41.2859 26.5903 40.1915 29.125C39.0984 31.6597 37.6144 33.8646 35.7394 35.7396C33.8644 37.6146 31.6596 39.0986 29.1248 40.1917C26.5901 41.2861 23.8818 41.8333 20.9998 41.8333ZM20.9998 37.6667C25.6526 37.6667 29.5936 36.0521 32.8228 32.8229C36.0519 29.5937 37.6665 25.6528 37.6665 21C37.6665 16.3472 36.0519 12.4062 32.8228 9.17707C29.5936 5.94791 25.6526 4.33332 20.9998 4.33332C16.3471 4.33332 12.4061 5.94791 9.17692 9.17707C5.94775 12.4062 4.33317 16.3472 4.33317 21C4.33317 25.6528 5.94775 29.5937 9.17692 32.8229C12.4061 36.0521 16.3471 37.6667 20.9998 37.6667Z" fill="#808080"/>
</svg>
